<svg viewBox="0 0 18 18" xmlns="http://www.w3.org/2000/svg" xmlns:xlink="http://www.w3.org/1999/xlink" width="18.000000" height="18.000000" fill="none">
	<rect id="trash-svgrepo-com 1" width="18.000000" height="18.000000" x="0.000000" y="0.000000" fill="rgb(255,255,255)" fill-opacity="0" />
	<path id="Vector" d="M5.36971 6L12.63 6C13.5039 6 14.1927 6.74385 14.1257 7.61505L13.6064 14.365C13.5463 15.1465 12.8946 15.75 12.1108 15.75L5.88894 15.75C5.10514 15.75 4.45348 15.1465 4.39336 14.365L3.87414 7.61505C3.80712 6.74386 4.49595 6 5.36971 6Z" fill-rule="nonzero" stroke="rgb(205,205,205)" stroke-width="1" />
	<path id="Vector" d="M14.625 3.75L3.375 3.75" stroke="rgb(205,205,205)" stroke-linecap="round" stroke-width="1" />
	<path id="Vector" d="M8.25 1.5L9.75 1.5C10.1642 1.5 10.5 1.83579 10.5 2.25L10.5 3.75L7.5 3.75L7.5 2.25C7.5 1.83579 7.83577 1.5 8.25 1.5Z" fill-rule="nonzero" stroke="rgb(205,205,205)" stroke-width="1" />
	<path id="Vector" d="M0 0L3.75 0" stroke="rgb(205,205,205)" stroke-linecap="round" stroke-width="1" transform="matrix(0,1,-1,0,10.5,9)" />
	<path id="Vector" d="M0 0L3.75 0" stroke="rgb(205,205,205)" stroke-linecap="round" stroke-width="1" transform="matrix(0,1,-1,0,7.5,9)" />
</svg>
