<svg viewBox="0 0 14.0017 14.0017" xmlns="http://www.w3.org/2000/svg" xmlns:xlink="http://www.w3.org/1999/xlink" width="14.001709" height="14.001709" fill="none" customFrame="#000000">
	<path id="Vector" d="M0.5 10.1654L0.5 13.5017L3.83636 13.5017L10.5091 6.82907L12.9018 4.43639L12.9025 4.43569C13.2324 4.10585 13.3974 3.94087 13.4592 3.75056C13.5136 3.58304 13.5136 3.40259 13.4592 3.23508C13.3973 3.04463 13.2321 2.8794 12.9018 2.54909L11.4506 1.09796C11.1217 0.769061 10.9569 0.60428 10.7669 0.542533C10.5993 0.488101 10.4189 0.488101 10.2514 0.542533C10.0612 0.604322 9.8962 0.769294 9.5669 1.09866L9.5654 1.10007L7.17272 3.49277L0.5 10.1654ZM7.17272 3.49277L10.5091 6.82907" fill-rule="nonzero" stroke="rgb(205,205,205)" stroke-linecap="round" stroke-linejoin="round" stroke-width="1" />
</svg>
